<?xml version="1.0" standalone="no"?>
<!DOCTYPE svg PUBLIC "-//W3C//DTD SVG 20010904//EN"
 "http://www.w3.org/TR/2001/REC-SVG-20010904/DTD/svg10.dtd">
<svg version="1.0" xmlns="http://www.w3.org/2000/svg"
 width="300.000000pt" height="300.000000pt" viewBox="0 0 300.000000 300.000000"
 preserveAspectRatio="xMidYMid meet">
<metadata>
Created by potrace 1.10, written by Peter Selinger 2001-2011
</metadata>
<g transform="translate(0.000000,300.000000) scale(0.100000,-0.100000)"
fill="#000000" stroke="none">
<path d="M1452 2923 c-22 -20 -42 -71 -23 -59 6 4 11 14 11 21 0 25 46 48 80
40 42 -9 51 -33 48 -128 l-3 -82 -32 -3 c-30 -3 -33 -6 -32 -35 2 -30 2 -30 6
-5 3 22 10 27 36 30 l32 3 3 96 c3 95 2 98 -24 118 -33 26 -75 27 -102 4z"/>
<path d="M1370 2614 c-6 -14 -34 -47 -63 -73 -28 -25 -65 -58 -80 -74 -16 -15
-59 -40 -95 -56 -64 -27 -231 -111 -319 -162 -24 -13 -43 -29 -43 -36 0 -7 -9
-17 -21 -23 -11 -7 -18 -14 -15 -17 3 -3 12 0 20 6 11 9 20 10 33 2 17 -10 17
-10 -3 -11 -28 0 -35 -9 -24 -30 7 -14 5 -20 -7 -25 -15 -5 -15 -8 -3 -15 9
-6 18 -3 25 6 9 12 11 10 13 -13 1 -15 12 -35 23 -44 17 -12 21 -28 24 -80 2
-69 -2 -92 -16 -83 -5 3 -7 10 -4 15 4 5 -5 13 -19 19 -24 9 -36 30 -18 30 5
0 17 6 28 14 18 14 18 15 -3 13 -12 -1 -25 -7 -28 -15 -3 -8 -11 -12 -18 -9
-8 3 -12 -6 -12 -25 0 -22 4 -28 16 -25 9 3 23 1 30 -4 11 -7 10 -9 -3 -9 -11
0 -15 -5 -12 -14 11 -29 -18 -27 -47 3 -28 30 -39 71 -19 71 6 0 10 9 10 19 0
11 5 23 10 26 6 4 8 10 5 15 -3 5 -1 20 5 34 6 17 6 26 0 26 -6 0 -10 -7 -10
-15 0 -9 -7 -26 -15 -39 -9 -13 -14 -29 -13 -36 2 -7 -9 -14 -24 -17 -16 -2
-28 1 -28 7 0 6 -5 8 -10 5 -13 -8 -10 -74 4 -82 5 -3 6 -1 2 5 -4 7 -2 12 4
12 8 0 8 6 0 21 -17 31 -6 33 23 3 26 -25 26 -27 9 -50 -10 -14 -24 -22 -34
-20 -10 2 -18 -2 -18 -9 0 -7 -12 -15 -27 -18 -16 -3 -35 -18 -45 -34 -14 -25
-15 -31 -2 -56 8 -15 19 -25 23 -22 5 2 8 -1 8 -8 -2 -21 82 -181 106 -202 12
-11 40 -41 61 -67 21 -28 46 -48 57 -48 18 0 19 -10 19 -291 0 -191 3 -288 10
-284 14 9 12 -8 -3 -24 -10 -11 -9 -12 3 -5 8 5 24 10 35 11 19 3 19 2 -2 -16
-12 -10 -19 -21 -16 -25 4 -3 -1 -6 -10 -6 -15 0 -17 -24 -17 -263 l0 -263 33
-12 c68 -24 204 -52 257 -52 30 0 87 -9 125 -21 46 -13 105 -22 170 -23 132
-4 332 10 370 24 17 7 80 18 140 26 124 16 241 48 246 66 9 31 -2 1028 -11
1023 -6 -4 -10 3 -10 15 0 12 4 18 10 15 5 -3 9 2 8 12 -5 59 3 92 23 98 11 4
18 9 15 12 -3 3 25 29 62 58 57 45 77 70 132 164 35 61 67 111 71 111 4 0 11
-9 14 -20 7 -22 -17 -68 -41 -83 -8 -4 -19 -18 -25 -30 -7 -14 3 -8 31 18 66
63 67 68 23 133 -22 31 -45 72 -53 91 -7 18 -25 45 -39 58 -14 14 -20 22 -13
19 6 -4 12 -5 12 -3 0 8 -33 73 -45 87 -7 8 -18 32 -25 53 -8 25 -16 35 -22
29 -6 -6 -1 -22 12 -44 l20 -35 -25 -17 c-24 -16 -25 -15 -31 8 -8 33 1 97 16
106 16 10 -12 63 -54 102 -17 17 -116 72 -220 124 -152 76 -203 106 -265 160
-42 37 -83 81 -91 98 l-15 31 -128 3 -127 3 -10 -27z m280 -63 c22 -25 40 -46
40 -49 0 -2 12 -13 26 -24 16 -13 24 -27 21 -39 -6 -21 36 -64 52 -54 6 3 11
-1 11 -9 0 -27 18 -18 22 10 l3 26 44 -35 c24 -19 51 -33 60 -30 9 2 33 -7 54
-21 21 -14 39 -26 41 -26 2 0 30 -12 62 -26 40 -18 54 -28 44 -34 -7 -4 -10
-15 -7 -24 4 -10 1 -19 -8 -22 -8 -4 -12 -10 -9 -15 9 -15 35 18 28 35 -3 9
-1 16 5 16 6 0 11 -12 11 -26 0 -19 4 -25 15 -21 8 4 17 2 20 -3 9 -15 25 -12
25 5 0 8 -9 15 -20 15 -11 0 -20 5 -20 10 0 6 4 10 10 10 5 0 7 8 4 18 -5 14
-4 14 4 2 6 -8 8 -18 5 -24 -4 -5 1 -7 10 -3 12 4 17 1 17 -11 0 -35 -13 -62
-29 -62 -14 0 -14 -2 -1 -10 20 -13 4 -13 -21 0 -20 11 -26 30 -8 30 5 0 7 -5
3 -11 -4 -7 -1 -10 6 -7 25 8 21 25 -5 31 -21 3 -29 -1 -37 -18 -6 -15 -16
-21 -25 -18 -12 5 -12 7 -1 14 10 7 10 9 1 9 -7 0 -13 8 -14 18 0 14 -2 14 -8
-3 -5 -11 -6 -26 -4 -32 3 -7 0 -13 -6 -13 -6 0 -11 8 -11 18 -1 15 -2 15 -12
-2 -9 -15 -7 -22 6 -32 12 -8 14 -14 6 -19 -8 -5 -7 -11 2 -23 10 -12 10 -16
0 -19 -16 -6 -6 -23 14 -23 8 0 14 7 14 16 0 22 23 12 36 -15 10 -19 12 -20
18 -6 11 28 -3 61 -27 62 -21 2 -21 1 -3 -12 11 -8 17 -17 14 -20 -3 -3 -11 1
-18 10 -7 8 -19 15 -26 15 -8 0 -14 5 -14 10 0 6 6 10 13 10 9 0 8 3 -2 9 -18
11 0 21 27 15 12 -4 18 -12 16 -19 -4 -10 1 -12 16 -8 19 5 21 3 16 -14 -5
-17 -1 -23 25 -32 37 -13 46 -9 27 10 -7 8 -20 23 -28 34 -15 20 -15 20 8 1
17 -15 21 -16 17 -4 -4 9 0 18 9 21 9 4 15 3 15 -1 -4 -23 2 -42 11 -37 7 4 8
-3 4 -21 -4 -16 -7 -33 -6 -39 1 -5 3 -23 4 -40 2 -16 7 -36 12 -44 7 -11 5
-13 -7 -8 -9 3 -18 0 -21 -9 -3 -9 -10 -13 -15 -9 -6 3 -15 -3 -21 -12 -9 -15
-9 -14 -4 8 3 17 0 30 -10 38 -14 12 -16 10 -16 -10 0 -19 -2 -21 -10 -9 -8
13 -10 12 -10 -2 0 -10 5 -18 10 -18 6 0 10 -9 10 -21 0 -13 4 -18 13 -13 8 5
7 2 -2 -9 -12 -15 -12 -19 2 -30 14 -11 14 -20 2 -87 -7 -41 -16 -83 -20 -92
-4 -10 -3 -18 3 -18 5 0 9 -32 9 -75 l0 -75 -29 0 c-16 0 -38 5 -49 10 -16 9
-21 7 -30 -14 -21 -46 16 -145 43 -118 7 7 14 12 17 12 4 0 6 -38 5 -85 -1
-73 -4 -89 -22 -108 -24 -26 -22 -65 6 -107 14 -21 17 -61 20 -248 2 -123 1
-230 -2 -239 -5 -12 -10 -12 -35 3 -25 15 -32 15 -45 5 -9 -8 -16 -20 -16 -29
0 -18 29 -42 50 -41 10 0 8 3 -5 9 -18 8 -17 9 8 9 15 1 27 7 28 14 0 6 7 -1
14 -18 16 -35 19 -239 4 -267 -11 -21 -140 -63 -169 -55 -11 3 -20 1 -20 -4 0
-9 -92 -5 -109 5 -6 4 -11 1 -11 -6 -1 -7 -9 -3 -21 11 -11 13 -23 20 -27 16
-4 -4 -1 -10 6 -12 17 -6 15 -50 -2 -56 -8 -3 -20 0 -26 8 -8 10 -7 16 6 23
10 5 14 14 9 21 -8 14 -45 -14 -45 -35 0 -23 -150 -38 -158 -15 -3 8 -8 7 -16
-5 -10 -14 -19 -15 -47 -7 -19 6 -62 9 -97 8 -61 -2 -64 -1 -86 31 -21 31 -23
32 -39 16 -20 -19 -57 -20 -189 -4 -107 13 -149 21 -165 34 -7 6 -19 8 -27 5
-22 -9 -28 5 -9 25 10 12 12 18 4 18 -20 0 -40 25 -32 39 6 10 12 9 25 -4 15
-15 16 -14 16 14 0 29 -1 30 -26 20 l-27 -10 7 47 c3 26 6 60 6 76 0 21 6 31
20 35 11 3 20 10 20 15 0 6 -7 8 -15 4 -17 -6 -19 2 -7 22 11 17 45 4 38 -14
-3 -8 0 -14 7 -14 8 0 7 -4 -3 -11 -13 -9 -13 -10 0 -6 29 8 3 67 -30 67 -15
0 -18 13 -22 88 -5 77 -3 90 15 109 19 22 18 53 -3 53 -6 0 -11 19 -11 43 1
23 -1 76 -3 117 -5 96 0 108 30 79 20 -19 27 -21 49 -11 14 6 25 17 25 23 0 7
8 18 18 25 21 16 6 47 -27 52 -11 2 -21 8 -21 14 0 7 -15 9 -40 5 l-40 -5 2
56 c2 60 22 104 57 128 26 19 27 48 1 81 -26 34 -25 53 3 53 31 0 67 27 67 50
0 23 -38 90 -51 90 -5 0 -9 -8 -9 -18 0 -10 -3 -21 -6 -25 -9 -9 -34 4 -34 17
0 6 -10 12 -21 13 -45 4 -43 22 2 20 33 -1 43 2 41 12 -4 19 18 81 29 81 5 0
9 -7 9 -15 0 -8 8 -15 18 -15 10 0 23 -5 30 -12 6 -6 42 -12 82 -12 43 -1 70
-5 70 -12 0 -6 18 -27 41 -47 35 -32 43 -35 62 -25 12 6 30 20 40 31 15 18 15
23 3 41 -7 12 -11 35 -8 54 4 27 1 32 -17 32 -11 0 -21 6 -21 14 0 7 -6 19
-14 26 -19 15 -8 43 14 37 9 -2 26 0 36 6 16 9 17 8 6 -5 -10 -13 -10 -17 3
-21 10 -4 17 2 21 18 7 28 15 30 46 14 16 -9 19 -8 12 3 -9 13 -10 18 -13 39
-1 6 -10 7 -23 3 -13 -4 -31 -7 -40 -6 -10 0 -18 -4 -18 -9 0 -6 5 -7 10 -4 6
3 10 2 10 -3 0 -6 -7 -12 -15 -16 -22 -8 -48 38 -47 81 2 44 2 45 50 46 31 2
38 5 30 15 -13 15 -38 16 -38 1 0 -5 -4 -7 -10 -4 -5 3 -10 15 -10 25 0 15 6
18 38 14 29 -3 33 -2 20 7 -10 5 -18 13 -18 18 0 12 40 51 53 51 7 0 8 -3 2
-8 -13 -9 -19 -35 -6 -28 5 4 13 1 17 -5 3 -6 1 -15 -5 -19 -9 -5 -6 -17 9
-43 22 -37 15 -55 -18 -42 -9 3 -13 3 -10 0 4 -4 3 -17 -2 -30 -7 -19 -5 -24
11 -28 14 -4 19 -1 15 8 -2 7 5 21 16 32 21 18 21 18 16 -3 -4 -14 0 -21 10
-21 8 0 17 8 19 18 7 25 31 31 43 11 9 -14 10 -12 5 11 -3 17 -1 36 7 45 11
15 11 15 -3 5 -8 -7 -30 -11 -48 -8 -34 4 -56 15 -31 15 9 0 7 5 -6 15 -10 8
-14 15 -8 15 6 0 17 -7 24 -15 12 -15 63 -18 54 -3 -3 5 -10 6 -15 3 -5 -4 -9
-2 -9 3 0 5 -10 12 -21 15 -16 4 -20 10 -14 24 13 31 7 53 -20 74 -14 12 -22
25 -19 30 4 6 13 4 23 -5 10 -9 34 -16 53 -16 27 0 41 -6 55 -25 16 -21 20
-22 37 -10 18 14 14 41 -5 29 -5 -3 -37 7 -70 22 -49 23 -64 36 -80 68 -15 31
-16 42 -7 48 9 5 10 8 1 8 -6 0 -14 10 -17 23 -3 12 -3 0 -1 -28 3 -27 7 -60
11 -72 4 -15 0 -24 -14 -32 -31 -16 -70 -21 -75 -8 -2 7 -7 9 -11 6 -4 -3 -2
-19 4 -35 6 -16 8 -25 4 -21 -4 4 -17 -10 -29 -30 -17 -31 -26 -38 -49 -36
-23 2 -26 0 -16 -13 7 -7 19 -14 28 -14 8 0 12 -3 9 -7 -4 -3 -1 -11 6 -17 7
-6 10 -10 8 -9 -2 1 -13 -2 -24 -8 -14 -8 -18 -8 -12 1 5 7 -2 10 -21 8 -24
-3 -29 2 -36 31 -5 18 -12 31 -15 27 -3 -3 -14 5 -24 18 -20 25 -26 66 -10 66
5 0 11 9 14 21 3 12 10 18 17 14 6 -4 26 5 45 19 41 31 49 33 35 6 -6 -11 -15
-18 -20 -15 -5 3 -11 1 -15 -5 -3 -6 2 -13 12 -16 10 -4 27 -17 38 -30 20 -23
21 -23 33 -4 10 17 10 20 -3 20 -20 0 -19 12 4 54 11 19 17 37 14 40 -4 3 3 6
15 6 12 0 22 5 22 10 0 16 -50 63 -58 55 -4 -4 6 -18 21 -31 15 -13 24 -24 18
-24 -5 0 -16 -3 -25 -6 -11 -4 -16 0 -17 12 0 12 -3 14 -6 6 -3 -7 -1 -18 4
-25 6 -7 7 -23 3 -37 l-7 -25 -8 28 c-4 15 -5 39 -2 53 2 14 -1 44 -8 67 l-12
42 -7 -67 c-10 -87 -40 -117 -105 -102 -19 4 -22 7 -11 14 9 5 19 5 27 -2 9
-7 13 -7 13 1 0 6 -12 14 -26 17 -19 5 -24 11 -20 26 5 20 4 20 -13 2 -10 -11
-16 -26 -14 -34 3 -9 2 -11 -4 -5 -12 15 -51 35 -68 35 -17 0 -18 4 -9 38 4
12 12 22 18 22 7 0 35 11 62 25 55 28 71 31 58 12 -5 -7 0 -3 11 8 21 23 55
39 55 27 0 -4 -13 -27 -30 -52 -16 -24 -27 -46 -25 -48 7 -7 41 37 76 96 25
43 34 51 45 41 8 -6 14 -24 14 -39 0 -33 22 -54 49 -45 20 6 38 35 22 35 -5 0
-11 -5 -13 -11 -2 -6 -15 -9 -28 -7 -24 3 -24 3 10 36 19 18 28 30 19 27 -25
-9 -33 12 -10 24 29 16 29 16 37 -46 6 -46 9 -53 14 -33 4 14 12 24 19 22 7
-1 10 2 7 7 -4 5 2 9 11 9 10 0 25 2 33 6 10 4 19 -2 26 -18 10 -21 9 -23 -10
-19 -16 3 -16 1 4 -7 13 -6 27 -15 30 -20 3 -5 14 0 23 11 17 19 17 20 0 17
-12 -2 -18 3 -17 14 1 10 -4 14 -12 11 -10 -4 -12 0 -8 11 5 14 0 16 -33 13
-22 -2 -45 -7 -51 -11 -19 -12 -25 15 -6 29 36 26 206 36 272 15 48 -15 46 -9
31 -135 -12 -102 -25 -129 -74 -152 -37 -17 -49 -39 -17 -28 11 3 29 -3 43
-13 26 -20 79 -17 87 6 5 15 -30 16 -45 1 -9 -9 -11 -2 -9 25 4 40 16 62 16
28 0 -12 6 -22 13 -22 7 0 22 -6 32 -14 15 -10 17 -17 8 -27 -6 -8 -7 -22 -2
-34 4 -11 8 -30 8 -42 1 -17 -3 -20 -21 -15 -14 3 -19 2 -14 -6 4 -7 2 -12 -3
-12 -6 0 -11 -7 -11 -16 0 -10 -6 -14 -15 -10 -10 4 -15 -1 -15 -15 0 -11 -7
-22 -15 -26 -19 -7 -34 5 -18 15 6 4 14 24 18 44 4 23 11 35 18 31 6 -4 7 -1
1 8 -5 8 -7 22 -6 32 2 9 -2 17 -7 17 -6 0 -10 -3 -10 -7 5 -30 -2 -63 -13
-57 -8 5 -9 -2 -5 -24 5 -26 2 -35 -25 -57 -22 -18 -34 -23 -41 -16 -8 8 -7
15 1 23 15 15 16 32 2 23 -5 -3 -10 -2 -10 4 0 5 5 13 10 16 13 8 42 76 35 83
-3 3 -5 0 -5 -7 0 -7 -3 -10 -7 -8 -5 3 -13 -1 -20 -8 -10 -11 -10 -15 0 -19
9 -3 9 -7 1 -13 -6 -4 -15 -19 -19 -31 -5 -17 -12 -22 -27 -19 -16 4 -17 3 -7
-9 8 -10 8 -14 0 -14 -6 0 -11 -7 -11 -16 0 -11 6 -13 19 -9 21 6 38 -12 25
-25 -14 -14 -98 -25 -90 -12 3 6 2 13 -3 17 -5 3 -13 0 -18 -7 -4 -7 -16 -13
-25 -13 -21 0 -26 -18 -6 -23 9 -2 8 0 -2 7 -13 9 -13 11 2 11 22 0 48 -27 48
-51 0 -11 7 -30 15 -42 8 -12 15 -37 17 -54 1 -17 6 -29 10 -27 4 3 18 7 30 9
26 5 43 29 24 33 -23 5 -7 42 18 41 19 0 20 -1 4 -12 -16 -10 -14 -13 14 -27
41 -20 45 -36 11 -45 -15 -3 -29 -5 -29 -3 -1 2 -11 -5 -22 -15 -18 -16 -20
-16 -26 -2 -8 23 -23 10 -20 -17 1 -13 3 -34 3 -48 1 -18 4 -21 13 -12 9 9 16
8 29 -4 16 -15 18 -13 24 29 6 39 12 48 41 62 36 17 44 39 19 49 -26 10 -16
23 23 29 20 3 45 8 55 12 13 6 17 2 17 -14 0 -12 6 -34 14 -50 14 -25 13 -30
-9 -55 -26 -30 -24 -56 6 -74 22 -14 24 -5 4 21 -15 21 -10 47 10 47 6 0 20
-9 30 -20 17 -19 17 -21 0 -40 -25 -28 -13 -35 16 -9 20 18 24 18 27 5 2 -9
10 -16 18 -16 17 0 46 42 41 61 -2 8 -2 11 0 6 3 -4 9 -5 14 -2 5 3 18 1 29
-5 19 -10 19 -11 0 -30 -25 -25 -26 -72 -2 -94 18 -15 21 -15 45 4 28 22 31
56 7 84 -7 9 -11 16 -9 16 2 0 20 4 38 10 27 7 32 7 23 -2 -46 -46 60 -112
111 -70 9 8 21 11 26 7 6 -3 8 0 5 8 -3 8 -15 18 -27 22 l-22 8 23 4 c22 4 23
5 5 18 -10 7 -18 21 -18 31 0 9 -6 19 -13 22 -17 5 -10 -77 8 -88 14 -9 7 -40
-10 -40 -17 0 -29 43 -16 59 9 11 8 13 -4 9 -8 -3 -15 -16 -16 -29 -2 -38 -3
-39 -28 -16 -24 21 -24 52 0 43 7 -3 18 2 24 9 7 8 17 12 24 9 6 -3 2 2 -9 11
-13 12 -16 19 -8 22 8 3 10 15 7 32 -4 16 -1 32 5 35 7 5 11 -3 12 -21 l1 -28
8 25 c4 14 8 19 9 13 2 -20 21 -15 21 5 1 15 2 15 15 -2 16 -21 19 -18 9 8 -4
11 -13 14 -29 10 -27 -7 -66 26 -64 54 1 24 17 70 18 54 1 -7 8 -20 16 -28 13
-14 15 -13 15 9 0 14 -6 27 -14 30 -8 3 -19 25 -24 49 -6 26 -10 33 -11 19 -1
-18 -5 -22 -18 -16 -10 4 -25 9 -34 12 -17 5 -33 68 -23 85 3 4 14 3 25 -2 22
-12 39 -6 39 15 0 21 -19 28 -35 15 -9 -7 -15 -8 -15 -2 0 5 10 17 23 25 l22
16 -25 -2 c-16 -1 -25 4 -28 16 -2 12 3 17 18 17 14 0 19 -4 14 -12 -5 -10 -4
-10 6 -1 13 12 4 37 -11 28 -5 -3 -6 1 -2 10 4 13 1 16 -18 13 -16 -2 -23 -9
-21 -19 1 -10 -7 -19 -20 -23 -22 -6 -22 -7 -5 -20 10 -8 18 -17 18 -20 -3
-27 1 -36 12 -30 6 4 0 -6 -15 -23 -16 -16 -28 -40 -28 -54 0 -14 -5 -30 -10
-35 -8 -8 -6 -15 6 -25 11 -9 15 -9 10 -2 -4 8 -2 11 6 8 9 -4 14 2 14 15 0
11 -4 20 -8 20 -4 0 -8 5 -8 11 0 8 5 8 15 -1 8 -7 15 -18 15 -26 0 -17 34
-36 53 -28 8 3 18 1 22 -5 3 -6 -1 -11 -9 -11 -10 0 -16 -9 -16 -21 0 -14 -5
-19 -14 -16 -7 3 -23 -1 -35 -9 -11 -8 -21 -12 -21 -9 0 3 -5 3 -11 -1 -8 -4
-8 -9 0 -17 19 -19 12 -23 -29 -19 -47 5 -60 20 -35 38 13 10 22 11 31 3 9 -8
16 -5 24 10 6 12 21 21 34 21 14 0 23 6 23 15 0 13 -9 14 -45 9 -31 -5 -43 -3
-38 4 7 12 -27 35 -37 25 -3 -3 -14 -2 -24 3 -22 10 -30 11 -68 13 -26 1 -27
3 -12 12 9 5 22 7 27 4 6 -3 7 1 4 9 -3 9 -2 16 4 16 6 0 13 -6 15 -12 3 -7 6
2 6 20 1 18 7 42 14 55 26 47 52 49 72 5 l14 -33 -1 30 c-1 17 1 36 6 43 6 10
1 11 -18 6 -16 -4 -26 -2 -26 5 0 6 8 11 19 11 31 0 46 26 32 57 -18 39 4 56
29 23 23 -30 34 -21 33 26 -1 27 2 34 14 30 8 -3 20 -6 26 -6 7 0 4 -7 -6 -14
-15 -12 -16 -20 -8 -48 6 -22 10 -26 11 -13 2 22 6 45 11 60 2 6 -6 23 -17 38
-17 21 -23 24 -28 12 -7 -19 -36 -19 -36 0 0 8 7 15 15 15 8 0 15 5 15 10 0
11 -13 13 -23 4 -4 -4 -20 -8 -37 -9 -58 -5 -77 -46 -44 -93 20 -28 11 -41
-13 -19 -10 8 -30 20 -46 26 -23 9 -27 16 -28 53 0 24 -5 52 -10 63 -8 17 -8
16 -4 -7 8 -40 -6 -40 -48 -2 -33 31 -37 39 -37 84 0 36 -4 52 -15 56 -8 4
-15 12 -15 20 0 8 -3 14 -7 15 -87 6 -107 10 -114 21 -6 9 -9 9 -9 1 0 -7 -25
-13 -62 -16 -35 -3 -79 -9 -99 -12 -34 -7 -36 -5 -43 25 -5 26 -1 36 17 51 12
10 28 18 35 19 6 0 11 3 11 8 -4 21 9 24 101 20 l99 -4 41 -43z m-321 -78 c1
-8 -10 -13 -25 -13 -17 0 -28 -6 -31 -20 -3 -11 -9 -20 -14 -20 -16 0 -10 28
9 42 9 7 24 26 32 42 l15 28 6 -23 c4 -13 7 -30 8 -36z m458 -32 c10 9 13 6
13 -13 0 -27 -25 -35 -34 -11 -3 8 -10 11 -16 8 -6 -3 -7 1 -4 10 5 11 10 13
17 6 7 -7 15 -7 24 0z m-52 -153 c10 -31 13 -88 5 -88 -4 0 -13 7 -20 15 -10
12 -10 18 0 30 10 13 9 15 -9 15 -24 0 -27 14 -8 35 17 20 24 18 32 -7z m-817
-30 c-4 -19 0 -23 25 -25 16 -1 35 -8 43 -14 11 -9 14 -9 14 0 0 7 4 10 9 7 5
-3 8 -19 7 -36 -1 -20 3 -30 12 -30 7 0 11 4 8 9 -3 5 2 12 11 15 10 4 14 4
11 0 -4 -4 -3 -16 3 -27 8 -14 8 -18 0 -13 -6 4 -11 3 -11 -2 0 -18 -58 -38
-99 -34 -35 4 -41 7 -41 27 0 13 -5 27 -11 31 -6 3 -9 18 -6 32 5 25 4 25 -9
7 -18 -24 -18 -44 1 -51 8 -4 12 -10 9 -16 -3 -5 -12 -7 -19 -4 -18 7 -25 -16
-10 -31 10 -9 15 -9 25 0 10 10 10 7 1 -11 -7 -12 -15 -21 -19 -18 -4 2 -8 -7
-8 -20 -1 -14 2 -21 9 -17 5 3 7 1 3 -5 -3 -6 -1 -12 6 -15 7 -2 5 -3 -4 -2
-22 4 -24 -11 -2 -19 8 -3 13 -9 11 -13 -3 -5 7 -17 22 -27 14 -11 20 -13 14
-6 -15 17 -17 34 -3 25 24 -15 41 -66 31 -95 -7 -22 -6 -30 5 -34 9 -3 12 -11
8 -17 -3 -6 -2 -14 4 -18 6 -4 7 -12 3 -20 -13 -21 -66 0 -66 26 0 12 -3 25
-7 29 -5 4 -8 0 -8 -9 0 -9 -5 -17 -10 -17 -6 0 -9 -6 -8 -12 2 -7 -7 -14 -19
-16 -19 -3 -21 -7 -13 -23 6 -10 20 -19 31 -19 19 0 19 -1 5 -16 -9 -8 -16
-21 -17 -27 0 -7 -2 -20 -4 -30 -2 -9 1 -15 6 -11 5 3 7 9 4 14 -3 4 2 13 9
19 11 9 16 9 21 1 6 -10 2 -23 -21 -68 -4 -9 -37 14 -44 32 -8 19 -9 19 -9 -6
-1 -35 -17 -37 -23 -3 -6 29 -2 35 24 35 10 0 18 7 18 15 0 8 5 15 11 15 5 0
7 5 4 10 -4 6 -10 8 -15 5 -4 -3 -11 1 -14 7 -3 7 -4 1 -1 -14 5 -24 2 -27
-36 -33 -47 -8 -47 -8 -51 28 -3 16 -10 32 -17 36 -18 11 -22 63 -6 85 11 15
17 16 28 7 8 -6 22 -8 32 -5 15 6 16 4 6 -14 -6 -11 -15 -23 -20 -26 -11 -7 3
-74 18 -89 8 -8 11 -7 11 3 0 7 8 22 18 33 16 19 16 20 -5 15 -29 -8 -38 18
-13 39 13 12 18 24 14 40 -9 35 14 28 31 -9 l15 -33 -4 43 c-2 23 -1 42 2 42
4 0 6 34 4 75 -2 43 -8 75 -14 75 -7 0 -7 4 -1 13 11 14 2 62 -12 62 -6 0 -19
6 -30 12 -16 9 -18 14 -7 24 6 7 13 10 13 6 1 -4 3 -11 4 -17 1 -5 3 -13 4
-16 0 -4 9 0 18 7 14 12 16 12 8 0 -5 -10 -4 -12 4 -7 8 5 9 12 2 20 -6 7 -7
23 -4 36 5 17 3 21 -6 15 -10 -6 -11 -1 -6 16 9 30 44 61 62 55 7 -3 13 -1 13
4 0 6 5 10 11 10 6 0 9 -10 7 -22z m1032 7 c0 -13 -31 -65 -38 -65 -16 0 -11
49 6 59 19 12 32 14 32 6z m-130 -86 c3 -1 12 -2 20 -3 8 -1 16 -10 18 -20 3
-15 0 -18 -17 -13 -26 7 -26 6 4 -27 14 -15 22 -32 19 -38 -4 -7 -17 1 -33 20
-18 22 -30 29 -40 23 -9 -6 -10 -11 -2 -15 6 -4 11 -1 11 6 0 9 3 9 10 -2 5
-8 9 -24 9 -35 -1 -17 -2 -17 -6 -2 -2 9 -9 17 -15 17 -5 0 -8 -6 -5 -12 2 -7
-2 -21 -11 -30 -12 -14 -12 -18 -2 -18 7 0 10 -3 7 -7 -4 -3 1 -12 11 -19 15
-12 15 -12 -6 -7 -18 4 -21 2 -16 -11 3 -9 2 -16 -4 -16 -5 0 -12 11 -14 25
-3 14 -2 25 2 25 4 0 7 7 7 15 0 8 -4 15 -9 15 -14 0 -9 22 10 37 15 12 15 13
-8 10 -14 -2 -20 -2 -14 0 5 2 17 19 26 38 8 19 11 32 7 29 -10 -6 -12 9 -3
18 5 5 30 4 44 -3z m436 -22 c20 -11 6 -36 -17 -30 -21 6 -22 7 -12 43 4 16 8
20 11 10 3 -8 11 -18 18 -23z m-336 -32 c-14 -17 -56 -20 -65 -6 -3 6 4 15 16
22 20 10 21 9 15 -7 -6 -16 -3 -15 16 4 24 23 39 12 18 -13z m-597 -38 c-18
-24 -19 -24 -41 -6 -22 17 -22 18 -2 24 11 3 24 4 29 0 5 -3 13 0 16 6 4 5 9
8 12 5 3 -3 -3 -16 -14 -29z m-266 6 c-3 -5 -1 -19 4 -32 8 -20 11 -22 27 -10
15 12 16 12 6 -1 -9 -11 -7 -22 6 -42 9 -16 19 -26 21 -23 3 2 10 -4 17 -15
10 -16 9 -18 -9 -17 -12 1 -25 12 -30 24 -5 13 -15 23 -23 23 -8 0 -20 8 -25
18 -9 15 -12 15 -22 2 -10 -13 -10 -13 -6 0 3 9 -1 24 -9 35 -10 13 -14 14
-14 5 0 -11 -3 -11 -12 -2 -10 10 -10 15 2 22 11 7 21 2 38 -18 17 -20 20 -21
13 -6 -7 15 -7 24 1 32 14 14 21 16 15 5z m-151 -52 c-9 -12 -12 -11 -14 3 -2
9 -1 25 3 34 6 15 8 15 15 -3 4 -12 3 -26 -4 -34z m49 -11 c4 -7 12 -7 25 0
11 6 21 6 24 1 10 -15 -5 -41 -23 -41 -14 0 -14 2 -1 11 12 9 12 10 -3 5 -10
-3 -23 -6 -29 -6 -7 0 -7 -5 1 -13 13 -16 50 -15 60 1 11 19 46 7 46 -16 0
-11 8 -29 18 -40 9 -10 17 -23 17 -28 0 -5 -8 0 -16 11 -11 14 -18 16 -21 8
-3 -7 -15 -13 -28 -13 -29 0 -55 -38 -34 -50 8 -5 19 1 31 16 11 13 23 24 27
24 11 0 11 -60 0 -61 -19 -3 -24 -5 -36 -12 -9 -5 -13 -3 -13 7 0 14 -12 20
-32 17 -5 0 -8 6 -8 14 0 8 4 15 9 15 5 0 13 10 17 22 5 16 1 27 -16 40 -26
21 -62 83 -53 92 10 9 31 7 38 -4z m781 -36 c-4 -10 1 -22 11 -30 17 -13 17
-13 1 -14 -10 0 -18 5 -18 10 0 6 -7 10 -15 10 -8 0 -15 5 -15 11 0 5 4 8 9 5
5 -3 11 1 15 9 3 8 8 15 12 15 3 0 3 -7 0 -16z m579 -14 c-4 -14 -1 -22 11
-27 15 -6 15 -7 -5 -14 -18 -7 -20 -14 -15 -36 7 -27 24 -47 33 -38 2 3 -1 11
-7 18 -7 8 -9 17 -5 20 3 4 0 7 -7 7 -11 0 -11 3 -2 12 29 29 83 -41 66 -86
-3 -8 -1 -17 5 -20 14 -9 -16 -63 -39 -69 -14 -4 -20 0 -21 11 -1 15 -2 15 -6
0 -2 -10 -14 -18 -26 -19 -12 0 -16 -3 -9 -6 19 -8 15 -35 -5 -30 -10 3 -30 8
-44 11 -26 6 -27 7 -25 88 1 82 2 83 26 81 19 -2 28 4 38 24 16 36 15 43 -5
59 -17 12 -16 13 5 14 12 0 22 5 22 10 0 6 5 10 11 10 6 0 8 -9 4 -20z m-1225
-25 c0 -7 12 -15 28 -17 21 -3 24 -6 10 -12 -21 -10 -69 20 -61 40 6 16 23 9
23 -11z m668 -50 c2 -9 0 -24 -4 -33 -4 -9 -6 -21 -5 -27 1 -5 -3 -5 -10 2 -9
9 -15 9 -25 -2 -16 -16 -19 -29 -4 -20 6 3 10 1 10 -5 0 -7 -6 -10 -12 -7 -7
2 -21 -2 -30 -11 -14 -12 -21 -12 -32 -3 -11 10 -17 8 -25 -6 -9 -16 -12 -16
-21 -3 -6 8 -7 26 -3 40 3 14 6 36 6 49 -1 17 1 20 7 10 7 -11 10 -10 16 5 4
11 14 16 26 13 15 -4 17 -2 8 7 -7 10 -6 17 5 26 8 7 12 17 8 23 -3 5 14 -2
38 -16 24 -15 46 -34 47 -42z m-161 13 c-2 -7 -9 -12 -15 -11 -6 2 -17 -7 -23
-19 -10 -18 -9 -20 5 -15 9 4 16 5 16 3 0 -3 3 -12 7 -22 4 -12 3 -15 -6 -10
-6 4 -19 2 -28 -6 -14 -11 -15 -10 -9 10 5 16 3 22 -7 22 -11 0 -13 -7 -9 -22
4 -18 2 -20 -16 -16 -23 6 -31 -7 -10 -14 7 -3 9 -12 4 -24 -7 -18 -8 -18 -17
-1 -6 9 -18 17 -27 17 -10 0 -13 3 -7 8 6 4 10 13 11 20 2 31 5 34 24 29 12
-3 32 7 57 29 40 35 58 43 50 22z m-390 -18 c-3 -11 -1 -18 3 -15 13 8 22 -13
13 -27 -4 -7 -8 -17 -8 -23 0 -5 -8 -9 -16 -7 -12 2 -15 -4 -11 -23 2 -14 9
-28 14 -31 14 -9 -62 -73 -97 -83 -62 -17 -134 13 -135 56 0 22 52 73 75 73 8
0 19 9 25 21 17 31 20 20 9 -33 -6 -25 -17 -49 -25 -52 -8 -3 -12 -1 -9 4 3 5
1 18 -4 27 -9 16 -10 15 -9 -7 0 -14 -3 -34 -7 -45 -5 -14 -4 -16 3 -7 5 8 15
13 23 12 23 -4 39 0 38 8 -3 19 2 26 10 13 5 -8 19 -16 32 -18 18 -3 20 -1 9
12 -9 10 -9 15 -1 15 6 0 11 7 11 15 0 17 -17 20 -22 4 -5 -15 -36 0 -34 16 1
8 5 18 9 21 4 4 7 15 7 25 0 13 5 17 18 13 13 -5 14 -4 3 4 -7 5 -22 7 -32 5
-27 -7 -24 2 7 22 15 9 23 12 20 6 -11 -17 20 -13 34 4 7 8 21 15 32 15 15 0
19 -5 15 -20z m676 -18 c19 -17 23 -42 7 -42 -22 0 -49 -35 -40 -50 5 -8 10
-11 10 -7 0 5 5 5 11 1 8 -4 7 -9 -2 -14 -7 -5 -14 -17 -15 -27 -2 -14 4 -18
31 -20 36 -2 47 10 20 21 -8 3 -15 11 -15 17 0 10 26 10 70 -2 11 -3 14 3 12
20 -3 29 14 51 40 51 11 0 22 9 25 20 7 28 23 25 23 -5 0 -18 -4 -23 -16 -18
-14 5 -15 3 -1 -23 14 -28 16 -121 3 -143 -3 -5 0 -11 6 -14 10 -4 10 -7 1
-17 -18 -20 -29 15 -14 46 14 32 14 37 -1 32 -7 -3 -13 -13 -13 -23 0 -22 -57
-45 -63 -26 -2 6 -8 9 -13 5 -5 -3 -9 1 -9 9 0 8 -8 14 -17 13 -10 0 -17 4
-16 11 2 7 -4 10 -13 6 -11 -4 -12 -8 -4 -13 8 -5 7 -10 -3 -18 -12 -10 -19
-5 -38 23 -14 20 -32 35 -44 35 -17 0 -17 -2 -5 -10 9 -6 11 -10 3 -10 -7 0
-19 12 -27 28 -8 15 -15 21 -16 15 0 -7 -10 -13 -22 -13 -17 0 -19 3 -10 12
17 17 39 18 53 2 18 -22 29 -17 20 9 -13 34 -7 97 9 107 8 6 11 10 5 10 -17 1
15 17 33 17 9 0 25 -7 35 -15z m-1271 -97 c-16 -35 -37 -46 -45 -22 -7 21 5
48 19 43 8 -3 14 -1 14 4 0 6 6 10 14 10 11 0 11 -6 -2 -35z m1158 10 c5 3 10
1 10 -6 0 -6 -8 -9 -19 -6 -12 3 -22 -1 -26 -11 -8 -22 -18 -7 -10 18 5 16 10
19 20 10 8 -7 19 -9 25 -5z m-1079 -32 c13 -21 23 -41 23 -45 1 -3 4 -10 9
-14 11 -11 9 -54 -3 -54 -6 0 -13 7 -16 15 -4 8 -16 15 -29 15 -12 0 -30 9
-41 21 -15 16 -16 23 -6 37 7 9 16 27 22 40 5 12 11 22 14 22 2 0 14 -17 27
-37z m213 21 c18 -7 22 -59 6 -69 -6 -4 -10 5 -10 19 0 19 -5 26 -19 26 -26 0
-36 17 -14 23 10 3 19 5 20 6 1 0 8 -2 17 -5z m610 -31 c8 -19 -15 -38 -25
-21 -8 13 -1 38 11 38 4 0 11 -8 14 -17z m-290 -6 c-3 -8 0 -25 5 -40 13 -33
-8 -44 -26 -13 -10 17 -12 18 -13 4 0 -9 5 -20 10 -23 15 -9 12 -35 -6 -42
-22 -8 -42 13 -26 29 7 7 12 24 12 39 0 17 8 34 22 43 27 19 29 20 22 3z m56
-37 c0 -13 -7 -13 -31 1 -11 5 -17 14 -14 20 7 11 45 -7 45 -21z m1130 20 c0
-5 -8 -10 -18 -10 -33 0 -56 -37 -57 -90 -1 -33 -7 -56 -20 -70 -23 -26 -38
-26 -30 0 5 14 2 18 -7 15 -15 -6 -22 -45 -8 -45 5 0 7 -6 4 -14 -6 -17 -40
-14 -36 3 2 9 -3 9 -19 1 -27 -15 -33 -8 -24 27 5 15 7 40 6 56 -3 28 7 35 26
16 8 -8 9 -19 2 -37 -10 -25 -10 -25 18 4 21 21 27 37 24 58 -3 26 -5 27 -15
10 -11 -19 -36 -30 -36 -16 0 4 6 14 13 22 6 8 1 6 -12 -5 l-24 -20 6 25 c4
14 7 31 7 38 0 6 4 12 10 12 5 0 7 -7 3 -15 -5 -13 -2 -14 20 -4 18 8 30 8 43
0 11 -6 13 -11 6 -11 -8 0 -11 -9 -8 -26 7 -38 16 -42 16 -8 0 36 15 58 55 79
35 17 55 19 55 5z m-622 -57 c-15 -19 -38 -16 -38 5 0 27 9 32 31 19 13 -8 15
-15 7 -24z m607 18 c3 -5 1 -12 -4 -15 -5 -3 -7 -15 -4 -26 3 -11 0 -20 -6
-20 -6 0 -11 7 -11 15 0 8 -7 15 -16 15 -8 0 -12 5 -9 10 4 6 11 8 16 5 5 -4
9 1 9 9 0 18 15 21 25 7z m-541 -16 c3 -8 1 -15 -5 -15 -6 0 -8 -4 -4 -10 8
-13 -5 -60 -17 -60 -6 0 -7 13 -2 32 6 29 5 31 -9 20 -10 -9 -17 -10 -22 -2
-3 6 -12 7 -18 3 -7 -4 -1 5 13 20 28 30 55 35 64 12z m-1085 -25 c10 -24 10
-34 1 -45 -13 -16 -13 -17 39 -19 16 0 27 3 24 7 -3 5 -17 6 -32 3 -25 -5 -25
-5 -4 6 17 8 30 7 54 -4 29 -14 30 -17 13 -26 -18 -10 -18 -11 -1 -17 26 -11
24 -91 -2 -100 -12 -4 -18 -12 -14 -21 4 -12 8 -12 21 -2 13 11 15 10 9 -4 -8
-21 1 -48 15 -48 6 0 5 7 -2 15 -10 12 -10 19 -2 27 8 8 13 6 18 -8 4 -10 12
-22 17 -25 17 -12 -2 -26 -28 -21 -22 4 -25 1 -25 -24 0 -23 -2 -26 -10 -14
-5 8 -10 27 -10 43 0 15 -4 27 -10 27 -5 0 -10 12 -10 26 0 17 -4 23 -12 18
-10 -6 -10 -5 -1 8 13 15 8 28 -11 28 -6 0 -4 -5 4 -10 11 -8 7 -9 -15 -4 -27
7 -29 6 -16 -9 11 -15 11 -17 -2 -17 -11 0 -15 9 -15 30 1 29 17 44 19 18 0
-8 3 -7 6 2 3 8 14 24 25 36 23 26 15 58 -11 44 -12 -6 -22 -5 -30 3 -10 9
-11 6 -6 -14 7 -28 -10 -48 -26 -32 -10 10 -1 153 10 153 3 0 12 -14 20 -30z
m-83 5 c4 -8 16 -15 28 -15 17 0 18 -2 6 -10 -9 -6 -18 -6 -24 0 -16 16 -29
11 -16 -5 21 -25 2 -31 -20 -7 -12 12 -16 22 -10 22 5 0 10 7 10 15 0 8 5 15
10 15 6 0 13 -7 16 -15z m578 4 c-3 -5 2 -9 10 -9 9 0 16 -4 16 -10 0 -5 -4
-10 -10 -10 -5 0 -10 -6 -10 -14 0 -19 -37 -27 -51 -10 -9 11 -9 17 1 29 6 8
10 18 7 22 -3 4 6 9 19 9 13 1 21 -2 18 -7z m274 -13 c3 -13 -2 -17 -14 -14
-25 4 -31 37 -7 34 10 -2 20 -11 21 -20z m-818 -66 c-9 -23 -16 -28 -25 -20
-10 8 -8 16 8 35 27 30 33 24 17 -15z m1233 -13 c-3 -5 1 -13 8 -18 11 -7 11
-9 -3 -9 -9 0 -24 -3 -33 -6 -12 -5 -16 -2 -14 12 2 10 -1 25 -5 33 -7 11 -5
13 7 8 9 -3 19 -1 23 5 4 7 9 6 15 -3 4 -7 5 -17 2 -22z m-983 -23 c0 -4 -12
-18 -26 -31 -30 -27 -53 -19 -36 14 9 17 62 31 62 17z m1255 -76 c-8 -5 -13
-13 -10 -19 4 -5 -1 -9 -9 -9 -17 0 -21 12 -8 24 4 4 8 12 8 17 1 5 2 12 3 15
0 4 8 1 17 -7 14 -11 14 -13 -1 -21z m-110 -4 c6 0 16 -2 23 -2 6 -1 12 -15
12 -31 0 -24 -3 -28 -20 -24 -14 4 -21 -1 -26 -22 -9 -37 -25 -11 -17 29 4 21
3 27 -5 22 -8 -4 -12 0 -12 12 0 24 10 33 24 24 6 -3 16 -7 21 -8z m25 -308
c0 -8 5 -16 12 -18 6 -2 8 -10 4 -17 -6 -9 -11 -9 -22 0 -12 10 -13 9 -8 -5 3
-9 10 -16 15 -16 5 0 9 -7 9 -15 0 -40 -44 9 -46 51 -1 27 2 34 17 34 11 0 19
-6 19 -14z m-1210 -16 c0 -5 11 -10 24 -10 37 0 40 -17 5 -24 -27 -5 -30 -8
-19 -21 17 -21 5 -30 -22 -18 -30 13 -36 83 -7 83 11 0 19 -4 19 -10z m1158
-577 c2 -8 -6 -13 -22 -13 -19 0 -24 4 -19 15 6 18 34 16 41 -2z m-785 -377
c13 -20 14 -25 3 -29 -8 -3 -22 0 -32 7 -15 12 -16 15 -3 29 8 9 15 16 15 17
1 0 9 -11 17 -24z"/>
<path d="M1589 2426 c-3 -3 -3 -21 -1 -41 4 -30 8 -35 30 -35 l26 0 -21 15
c-12 8 -23 27 -25 41 -2 14 -5 23 -9 20z"/>
<path d="M1397 2329 c-14 -8 -16 -14 -6 -25 17 -21 39 -17 39 7 0 11 4 18 9
14 5 -3 12 -1 16 5 8 13 -35 12 -58 -1z"/>
<path d="M1156 2123 c-4 -9 -1 -21 5 -27 9 -8 10 -8 6 0 -4 7 0 14 8 18 8 3
15 10 15 16 0 16 -27 11 -34 -7z"/>
<path d="M2157 2037 c-12 -31 -8 -47 12 -47 11 0 23 5 26 10 3 6 -1 10 -9 10
-8 0 -16 10 -18 23 -3 20 -4 20 -11 4z"/>
<path d="M2160 1969 c0 -4 6 -12 14 -18 12 -10 17 -8 25 7 9 17 7 20 -14 18
-14 0 -25 -4 -25 -7z"/>
<path d="M1334 1813 c3 -4 -1 -14 -10 -24 -14 -16 -14 -17 2 -15 10 2 20 8 22
14 2 7 8 10 13 6 5 -3 9 -1 9 4 0 5 -9 12 -21 15 -12 3 -18 3 -15 0z"/>
<path d="M2120 1803 c0 -10 9 -24 21 -31 19 -12 19 -11 9 7 -9 17 -8 20 5 15
8 -4 15 -1 15 7 0 7 -3 9 -6 6 -4 -3 -15 -2 -25 4 -15 8 -19 6 -19 -8z"/>
<path d="M1376 1685 c-10 -15 -15 -30 -11 -33 3 -4 10 0 14 7 11 17 54 4 47
-14 -3 -8 0 -15 7 -18 6 -2 2 -6 -10 -9 -16 -4 -20 -2 -16 8 4 10 -3 14 -22
14 l-28 0 28 -22 c54 -42 81 20 31 70 l-23 23 -17 -26z"/>
<path d="M1597 1649 c-9 -19 -18 -50 -22 -69 -4 -19 -9 -44 -12 -54 -5 -19 -6
-19 -19 -1 -11 14 -17 16 -26 7 -9 -9 -7 -13 5 -18 23 -8 21 -19 -3 -21 -11
-1 -25 7 -30 17 -8 16 -6 22 15 33 l26 13 -21 19 c-14 13 -19 14 -16 4 3 -8 2
-21 -3 -29 -9 -12 -12 -12 -28 2 -30 27 -61 26 -135 -5 -19 -8 -28 -19 -28
-34 0 -12 -4 -24 -8 -27 -4 -3 -6 -21 -4 -41 4 -32 7 -36 27 -31 12 3 25 2 29
-2 13 -12 84 -8 79 5 -4 11 -27 12 -39 1 -3 -4 -12 -4 -20 -1 -13 5 -12 8 2
24 9 10 22 15 28 12 6 -4 18 -8 26 -10 8 -1 20 -9 26 -17 6 -9 14 -12 18 -8 4
4 4 -7 1 -23 -10 -40 -10 -35 -1 -74 8 -31 5 -37 -19 -57 -25 -19 -26 -24 -14
-45 7 -13 12 -30 11 -37 -2 -6 1 -18 5 -26 7 -12 10 -12 21 0 11 12 10 14 -3
14 -13 0 -14 4 -4 22 10 18 8 24 -7 35 -18 13 -13 28 9 28 7 0 15 16 18 35 l5
35 8 -27 c6 -20 4 -32 -8 -43 -20 -21 -21 -36 -1 -29 17 7 20 -7 6 -22 -5 -5
-6 -37 -1 -74 4 -36 8 -61 9 -57 0 5 13 -6 28 -23 25 -30 27 -31 40 -14 9 12
11 33 7 65 -8 60 1 95 26 109 14 7 20 7 20 0 0 -5 -8 -10 -17 -11 -12 0 -8 -4
9 -10 58 -22 134 49 118 111 -5 21 -12 25 -43 27 -29 1 -37 -3 -37 -16 0 -21
-27 -61 -42 -61 -6 0 -8 9 -4 23 4 12 9 40 11 62 l4 40 -18 -22 c-18 -21 -21
-36 -36 -160 -5 -34 -12 -53 -20 -53 -9 0 -11 8 -8 23 5 22 5 22 -10 2 -20
-26 -30 -15 -17 19 5 14 7 46 3 71 -5 41 -4 45 15 45 13 0 23 10 31 30 5 17
15 30 20 30 6 0 8 7 5 15 -4 8 -10 15 -15 15 -4 0 -6 -7 -3 -15 5 -11 -2 -15
-27 -16 -19 -1 -26 -3 -16 -6 9 -2 17 -11 17 -20 0 -8 -5 -12 -12 -9 -7 3 -20
9 -29 12 -15 5 -15 9 -2 35 8 17 22 29 31 28 39 -3 48 1 29 15 -12 9 -14 16
-8 21 6 3 11 14 11 24 0 9 7 40 15 68 14 45 17 50 40 45 29 -5 45 22 25 41
-10 9 -11 7 -6 -10 5 -17 3 -21 -11 -19 -22 3 -31 46 -9 46 23 0 30 20 13 37
-13 14 -17 12 -30 -18z m-150 -114 c7 -5 -24 -55 -34 -55 -19 0 -27 21 -12 31
7 4 10 11 7 15 -4 3 -14 -1 -23 -10 -9 -9 -22 -13 -28 -9 -7 3 -8 2 -4 -3 5
-5 13 -9 18 -9 5 0 9 -3 9 -7 0 -5 0 -12 0 -17 0 -12 -45 -22 -64 -15 -20 8
-21 24 -2 24 8 0 14 6 13 13 -1 36 4 45 22 40 10 -3 22 0 25 6 5 8 61 5 73 -4z
m33 -56 c0 10 3 11 13 3 7 -6 23 -9 35 -5 14 3 22 1 22 -6 0 -21 -20 -51 -34
-51 -7 0 -18 -10 -23 -22 -9 -21 -11 -20 -17 17 -7 38 -9 40 -41 39 -21 -1
-36 3 -39 12 -4 11 -1 12 14 4 22 -12 51 -13 49 -2 -3 19 2 25 11 12 8 -12 10
-12 10 -1z m230 -172 c0 -7 -5 -18 -12 -25 -9 -9 -9 -12 2 -12 10 0 9 -4 -3
-18 -10 -10 -17 -24 -17 -31 0 -8 -8 -11 -20 -8 -14 4 -20 0 -21 -11 0 -12 -3
-9 -10 6 -7 18 -4 30 11 49 11 14 20 32 20 39 0 8 6 11 15 8 8 -4 15 -1 15 5
0 6 5 11 10 11 6 0 10 -6 10 -13z m-157 -206 c15 -26 15 -30 1 -35 -9 -3 -12
-11 -8 -18 5 -9 2 -8 -10 1 -11 9 -13 17 -6 21 7 4 3 13 -9 24 -21 19 -18 48
3 40 7 -3 20 -18 29 -33z"/>
<path d="M1053 1588 c-26 -29 -7 -72 33 -76 41 -4 57 17 49 62 -6 30 -11 35
-36 34 -16 -1 -36 -9 -46 -20z m67 -3 c0 -8 -8 -16 -17 -16 -17 -1 -17 -2 0
-6 24 -6 21 -33 -4 -33 -13 0 -18 4 -13 13 6 9 5 9 -7 0 -13 -11 -16 -8 -16
18 0 27 3 30 24 24 13 -3 23 -1 23 5 0 5 2 10 5 10 3 0 5 -7 5 -15z"/>
<path d="M1630 1509 c-31 -40 -32 -42 -20 -80 14 -41 21 -42 87 -18 33 12 35
25 14 72 -32 70 -43 73 -81 26z m50 -21 c0 -10 7 -18 15 -18 9 0 15 -9 15 -25
0 -14 -4 -25 -10 -25 -5 0 -10 5 -10 11 0 8 -4 8 -12 2 -18 -13 -32 -11 -53
10 -13 13 -15 21 -7 29 8 8 17 5 32 -13 13 -14 18 -17 12 -6 -11 24 -3 85 9
66 5 -8 9 -22 9 -31z"/>
<path d="M1123 1465 c-48 -20 -46 -60 2 -81 31 -13 39 -13 65 1 32 16 38 41
20 76 -12 22 -42 24 -87 4z m61 -19 c-1 -9 4 -16 12 -16 21 0 16 -14 -9 -26
-32 -14 -84 4 -79 29 4 21 16 22 32 2 19 -23 28 -18 22 11 -4 20 -1 25 9 22 8
-3 13 -13 13 -22z"/>
<path d="M1867 1463 c-4 -3 -19 -7 -34 -8 -76 -3 -8 -145 69 -145 29 0 48 31
46 76 -1 26 -4 30 -22 27 -12 -3 -32 5 -45 16 -24 21 -19 26 21 22 9 -1 19 3
23 9 7 11 -47 15 -58 3z m-12 -43 c-5 8 3 5 16 -6 13 -12 29 -20 34 -18 13 5
36 -44 24 -52 -5 -3 -19 5 -30 18 l-20 23 12 -24 c11 -23 10 -23 -17 -17 -32
8 -46 24 -39 44 2 6 -3 12 -13 12 -13 0 -14 2 -3 9 9 6 10 11 2 15 -6 4 -11
12 -11 18 0 6 12 1 27 -13 14 -13 23 -17 18 -9z"/>
<path d="M981 1341 c-40 -40 -41 -98 -1 -118 22 -11 26 -9 43 15 11 15 37 35
58 44 22 9 39 21 39 26 0 18 -37 41 -77 48 -33 5 -45 2 -62 -15z m67 -13 c9
-9 12 -9 12 0 0 7 4 12 9 12 4 0 6 -11 3 -25 -2 -14 -7 -24 -9 -21 -3 3 -12
-2 -21 -10 -10 -11 -18 -12 -25 -5 -14 14 -27 14 -27 1 0 -5 5 -9 11 -7 6 1
13 -3 16 -9 4 -11 -42 -26 -51 -17 -6 7 15 54 34 75 18 20 32 22 48 6z"/>
<path d="M1264 1302 c1 -25 4 -27 18 -18 27 16 32 0 10 -29 -16 -20 -22 -23
-29 -12 -4 8 -14 16 -22 18 -11 4 -10 8 4 22 9 10 15 21 11 24 -3 4 -16 -4
-27 -16 l-22 -23 25 -25 c21 -21 30 -23 59 -16 47 13 52 52 11 82 -38 27 -39
27 -38 -7z"/>
<path d="M1972 1304 c-27 -18 -28 -41 -3 -73 l19 -24 33 19 c40 24 47 48 23
75 -21 23 -42 24 -72 3z m48 -15 c0 -5 8 -9 18 -10 10 0 12 -3 4 -6 -6 -2 -9
-10 -5 -15 4 -7 -2 -9 -15 -6 -15 4 -22 2 -22 -8 0 -20 -16 -17 -24 4 -3 9 -9
23 -12 30 -3 7 1 12 10 12 9 0 16 4 16 10 0 5 7 7 15 4 8 -4 15 -10 15 -15z"/>
<path d="M1070 1249 c-14 -16 -24 -34 -22 -40 4 -16 -16 -10 -21 6 -4 11 -4
10 -3 -2 1 -19 31 -26 31 -8 0 6 10 20 23 33 12 12 22 27 22 32 0 15 -3 13
-30 -21z"/>
<path d="M1804 1196 c-9 -39 -1 -59 29 -69 23 -7 31 -6 42 9 31 41 12 84 -37
84 -21 0 -29 -6 -34 -24z m54 2 c12 4 14 1 9 -12 -4 -10 -7 -24 -7 -31 0 -7
-10 -12 -25 -11 -27 1 -35 16 -9 16 14 0 14 1 0 16 -9 8 -13 20 -10 26 4 6 10
6 16 0 6 -6 17 -8 26 -4z"/>
<path d="M1153 1163 c-46 -9 -69 -74 -35 -99 28 -22 59 -16 81 15 24 33 27 61
9 79 -12 12 -16 13 -55 5z m44 -34 c1 -14 -5 -19 -25 -19 -23 -1 -24 -2 -10
-11 20 -11 13 -40 -8 -32 -8 3 -11 9 -8 14 3 5 -1 6 -9 3 -8 -3 -18 -1 -22 5
-3 6 -1 11 4 11 6 0 11 9 11 19 0 30 65 40 67 10z"/>
<path d="M1916 1099 c-30 -35 -25 -48 27 -74 36 -18 37 -18 37 -4 0 5 -6 7
-12 4 -7 -4 -2 3 12 15 16 15 26 18 28 10 3 -7 0 -15 -5 -19 -12 -8 -26 -44
-14 -37 14 9 43 77 36 84 -3 3 -16 0 -28 -7 -33 -21 -77 -24 -77 -5 0 8 4 12
10 9 6 -3 7 1 4 9 -4 11 0 16 10 16 9 0 16 5 16 11 0 7 10 5 25 -5 34 -23 52
-20 30 4 -27 30 -69 26 -99 -11z"/>
<path d="M1348 1092 c-27 -12 -38 -23 -38 -39 0 -31 10 -53 25 -53 7 0 16 -7
19 -16 11 -28 97 8 96 40 -1 25 -27 45 -49 39 -22 -6 -21 -7 10 -20 25 -10 30
-16 21 -25 -17 -17 -72 -19 -79 -2 -3 8 -13 14 -22 14 -14 0 -14 2 -1 10 10 6
11 10 3 10 -7 0 -13 4 -13 10 0 6 9 6 25 0 16 -6 25 -6 25 0 0 6 -5 10 -11 10
-5 0 -7 5 -4 10 3 6 17 10 31 10 14 0 22 -4 19 -10 -3 -6 1 -7 9 -4 9 3 16 10
16 16 0 5 -4 6 -10 3 -5 -3 -10 -1 -10 4 0 15 -17 12 -62 -7z"/>
<path d="M1472 1069 c-1 -9 -5 -32 -8 -50 -5 -26 -4 -31 5 -23 7 7 11 28 8 50
-2 22 -4 32 -5 23z"/>
<path d="M1656 1057 c-23 -19 -27 -28 -21 -48 4 -13 17 -32 28 -41 19 -17 21
-16 48 5 40 31 48 66 19 89 -29 23 -39 23 -74 -5z m78 -9 c9 8 7 -11 -3 -27
-7 -10 -13 -11 -30 -2 -20 11 -21 10 -15 -15 5 -19 3 -25 -5 -23 -7 3 -11 8
-9 11 2 4 -6 14 -17 22 -18 14 -18 15 -2 16 9 0 17 6 17 14 0 11 7 13 29 6 16
-4 32 -6 35 -2z"/>
<path d="M982 970 c-26 -42 -7 -83 44 -93 23 -4 36 -1 48 12 21 24 20 43 -5
75 -25 32 -69 35 -87 6z m66 -16 c6 -7 12 -17 12 -23 0 -6 5 -11 12 -11 6 0 3
-6 -8 -14 -16 -13 -20 -13 -27 0 -4 8 -5 19 -2 24 3 6 1 10 -4 10 -6 0 -11 -9
-11 -20 0 -11 -6 -20 -13 -20 -8 0 -13 13 -13 34 0 29 4 34 21 33 11 -1 26 -7
33 -13z"/>
<path d="M1190 908 c-23 -38 -25 -59 -8 -76 28 -28 88 0 103 50 6 16 2 26 -15
40 -33 27 -58 22 -80 -14z m50 1 c0 -6 7 -9 15 -6 8 4 17 2 20 -3 4 -6 1 -10
-4 -10 -6 0 -11 -9 -11 -20 0 -11 -6 -21 -12 -21 -7 -1 -23 -3 -35 -4 -17 -2
-23 3 -23 16 0 14 7 19 28 19 23 1 24 2 10 11 -22 12 -23 29 -3 29 8 0 15 -5
15 -11z"/>
<path d="M1471 920 c1 -8 0 -17 -1 -20 -1 -3 -2 -21 -3 -42 -2 -28 1 -34 11
-26 9 8 12 2 12 -28 l1 -39 14 27 c8 15 24 30 36 33 18 6 20 12 13 48 -3 23
-14 47 -23 54 -22 17 -62 12 -60 -7z m40 -33 c-9 -12 -7 -16 10 -20 12 -3 19
-11 17 -18 -8 -23 -25 -20 -42 6 -13 20 -14 30 -5 46 8 15 14 18 22 10 7 -7 7
-14 -2 -24z"/>
<path d="M1772 903 c-23 -30 -28 -43 -21 -60 12 -32 55 -40 86 -16 39 28 46
57 22 87 -28 36 -52 32 -87 -11z m58 1 c0 -8 4 -13 9 -9 5 3 12 1 16 -4 3 -5
-3 -14 -12 -20 -10 -5 -17 -13 -16 -18 1 -4 -7 -11 -18 -15 -10 -4 -19 -3 -19
2 0 5 -6 7 -13 4 -8 -3 -13 3 -13 16 0 18 5 20 31 14 24 -5 28 -4 18 7 -18 18
-16 39 2 39 8 0 15 -7 15 -16z"/>
<path d="M2023 868 c-18 -24 -21 -57 -6 -77 13 -20 16 -20 44 -5 42 21 46 40
15 69 -31 28 -39 30 -53 13z m54 -38 c12 0 8 -6 -15 -20 -18 -11 -34 -20 -36
-20 -9 0 -3 56 7 68 9 11 12 10 19 -7 4 -12 15 -21 25 -21z"/>
<path d="M1550 779 c-7 -15 -10 -40 -8 -55 2 -23 9 -30 35 -35 39 -8 57 9 60
55 2 43 -8 57 -45 60 -25 2 -33 -3 -42 -25z m56 -24 c-15 -11 -15 -13 -1 -19
25 -9 17 -25 -14 -24 -24 1 -29 5 -28 24 1 12 11 31 22 42 17 17 21 17 29 4 6
-10 4 -19 -8 -27z"/>
<path d="M1400 774 c0 -14 3 -14 15 -4 20 17 25 11 14 -17 -15 -41 -48 -23
-40 21 1 5 -5 4 -13 -3 -14 -12 -14 -16 2 -37 9 -13 23 -24 29 -24 18 0 46 47
39 65 -7 20 -46 19 -46 -1z"/>
<path d="M1040 743 c-22 -5 -49 -28 -50 -45 0 -15 53 -68 69 -68 25 0 51 32
51 62 0 21 -28 61 -41 57 -2 -1 -15 -4 -29 -6z m4 -55 c-4 -7 -3 -8 4 -4 7 4
12 14 12 22 0 8 6 14 13 14 9 0 14 -12 14 -30 0 -21 -4 -29 -13 -26 -8 3 -16
1 -20 -5 -3 -6 -14 -1 -25 12 -22 26 -23 31 -7 47 9 9 14 9 21 -3 4 -8 5 -20
1 -27z"/>
<path d="M1857 732 c-22 -24 -22 -55 1 -75 27 -24 51 -21 64 8 10 21 8 30 -8
52 -26 35 -37 37 -57 15z m39 -27 c-17 -13 -18 -15 -3 -15 19 0 20 -2 11 -25
-6 -14 -8 -14 -25 1 -29 26 -25 54 9 54 26 -1 26 -1 8 -15z"/>
<path d="M1524 645 c-9 -14 -20 -22 -25 -19 -5 3 -9 -1 -9 -9 0 -8 -7 -17 -15
-21 -11 -4 -15 -22 -14 -73 1 -57 2 -63 10 -38 5 17 7 36 4 44 -4 9 1 12 15 8
22 -6 70 27 70 48 0 8 -9 19 -21 25 -19 11 -19 13 -4 36 8 13 13 24 10 24 -2
0 -12 -11 -21 -25z m2 -70 c-3 -9 -10 -14 -15 -10 -5 3 -12 1 -16 -5 -9 -15
-25 -12 -25 5 0 8 6 12 14 9 8 -3 16 4 19 18 5 17 9 20 18 11 6 -6 9 -19 5
-28z"/>
<path d="M1665 624 c-29 -21 -28 -51 2 -59 31 -7 43 1 43 29 0 34 -21 48 -45
30z m24 -40 c-9 -11 -15 -12 -25 -3 -16 13 -19 33 -4 24 6 -3 13 1 17 10 6 16
7 16 15 1 6 -11 5 -22 -3 -32z"/>
<path d="M1274 622 c-21 -14 -33 -46 -23 -63 12 -23 69 -36 80 -18 15 24 10
50 -13 70 -26 21 -29 22 -44 11z m37 -31 c0 -3 2 -14 4 -23 2 -10 -3 -18 -11
-18 -8 0 -14 8 -14 18 0 14 -2 15 -10 2 -12 -19 -23 -7 -16 18 5 14 13 18 26
15 11 -3 20 -8 21 -12z"/>
<path d="M1810 526 c-8 -6 -21 -19 -29 -29 -12 -15 -11 -20 4 -37 10 -11 29
-20 41 -20 27 0 57 39 49 62 -9 24 -48 38 -65 24z m35 -19 c9 -9 10 -19 3 -30
-11 -21 -48 -22 -48 -2 0 8 5 15 10 15 6 0 10 7 10 15 0 18 7 19 25 2z"/>
<path d="M1090 459 c-24 -44 10 -96 47 -73 22 14 33 53 21 77 -12 24 -55 22
-68 -4z m43 -26 c-9 -7 -12 -13 -5 -13 7 0 12 -4 12 -10 0 -18 -37 -11 -37 8
-1 26 28 56 39 40 5 -8 1 -18 -9 -25z"/>
<path d="M1552 463 c-15 -28 -15 -73 -1 -73 7 0 9 -10 7 -25 -3 -13 -1 -22 3
-19 5 3 9 14 9 25 0 10 6 19 14 19 21 0 36 24 29 48 -3 12 -13 22 -23 22 -10
0 -20 6 -22 12 -3 8 -9 5 -16 -9z m48 -35 c0 -26 -21 -33 -36 -13 -16 22 -12
31 15 31 13 0 21 -7 21 -18z"/>
<path d="M1417 382 c-10 -10 -17 -28 -17 -39 0 -21 29 -53 48 -53 6 0 16 -8
21 -17 9 -15 10 -13 11 14 0 17 4 35 10 38 15 9 -30 74 -51 75 -3 0 -13 -8
-22 -18z m43 -27 c5 3 8 -8 8 -25 -1 -16 -4 -30 -8 -30 -21 0 -45 66 -26 73 6
2 12 -2 14 -10 2 -7 7 -11 12 -8z"/>
<path d="M2003 363 c-29 -11 -2 -73 32 -73 24 0 37 36 23 60 -12 19 -30 24
-55 13z m37 -24 c16 -30 8 -42 -17 -24 -13 9 -20 22 -17 30 8 21 21 19 34 -6z"/>
<path d="M2275 1832 c-16 -15 -30 -36 -29 -47 3 -60 3 -59 24 -32 22 27 26 42
10 32 -5 -3 -10 1 -10 9 0 17 36 40 49 31 5 -3 8 3 7 12 -4 26 -18 25 -51 -5z"/>
<path d="M2347 1854 c-4 -4 -4 -18 -1 -31 6 -22 4 -23 -22 -17 l-29 7 25 -21
c29 -24 35 -20 44 31 6 34 -1 47 -17 31z"/>
<path d="M1153 1861 c-31 -26 -29 -30 11 -17 21 6 32 15 29 23 -7 17 -14 16
-40 -6z"/>
<path d="M1986 1812 c-8 -13 5 -52 16 -52 6 0 8 7 5 15 -4 8 -2 17 4 20 10 7
3 25 -11 25 -5 0 -11 -4 -14 -8z"/>
<path d="M1952 1710 c11 -22 24 -40 30 -40 5 0 7 4 3 9 -3 5 9 20 26 32 29 21
30 23 13 30 -31 12 -34 10 -34 -18 l0 -28 -25 28 c-14 15 -27 27 -29 27 -2 0
5 -18 16 -40z"/>
<path d="M770 2037 c0 -7 7 -20 15 -30 10 -15 18 -17 32 -8 17 10 16 10 -4 11
-25 0 -40 16 -21 22 8 3 6 7 -5 11 -10 4 -17 2 -17 -6z"/>
</g>
</svg>
